<mxfile host="app.diagrams.net" modified="2024-05-09T04:44:25.462Z" agent="Mozilla/5.0 (Windows NT 10.0; Win64; x64) AppleWebKit/537.36 (KHTML, like Gecko) Chrome/124.0.0.0 Safari/537.36" version="24.2.5" etag="1D3VXMFtpFXzJj0Tm4p9" type="github">
  <diagram name="Page-1" id="simC7MvaOWSxBq7znksE">
    <mxGraphModel>
      <root>
        <mxCell id="0" />
        <mxCell id="1" parent="0" />
      </root>
    </mxGraphModel>
  </diagram>
</mxfile>
